G04 #@! TF.GenerationSoftware,KiCad,Pcbnew,(6.0.9)*
G04 #@! TF.CreationDate,2024-04-27T20:04:49+10:00*
G04 #@! TF.ProjectId,DFO,44464f2e-6b69-4636-9164-5f7063625858,rev?*
G04 #@! TF.SameCoordinates,Original*
G04 #@! TF.FileFunction,Paste,Top*
G04 #@! TF.FilePolarity,Positive*
%FSLAX46Y46*%
G04 Gerber Fmt 4.6, Leading zero omitted, Abs format (unit mm)*
G04 Created by KiCad (PCBNEW (6.0.9)) date 2024-04-27 20:04:49*
%MOMM*%
%LPD*%
G01*
G04 APERTURE LIST*
G04 Aperture macros list*
%AMRoundRect*
0 Rectangle with rounded corners*
0 $1 Rounding radius*
0 $2 $3 $4 $5 $6 $7 $8 $9 X,Y pos of 4 corners*
0 Add a 4 corners polygon primitive as box body*
4,1,4,$2,$3,$4,$5,$6,$7,$8,$9,$2,$3,0*
0 Add four circle primitives for the rounded corners*
1,1,$1+$1,$2,$3*
1,1,$1+$1,$4,$5*
1,1,$1+$1,$6,$7*
1,1,$1+$1,$8,$9*
0 Add four rect primitives between the rounded corners*
20,1,$1+$1,$2,$3,$4,$5,0*
20,1,$1+$1,$4,$5,$6,$7,0*
20,1,$1+$1,$6,$7,$8,$9,0*
20,1,$1+$1,$8,$9,$2,$3,0*%
G04 Aperture macros list end*
%ADD10RoundRect,0.090000X0.090000X-0.139000X0.090000X0.139000X-0.090000X0.139000X-0.090000X-0.139000X0*%
%ADD11RoundRect,0.090000X-0.090000X0.139000X-0.090000X-0.139000X0.090000X-0.139000X0.090000X0.139000X0*%
%ADD12RoundRect,0.090000X0.139000X0.090000X-0.139000X0.090000X-0.139000X-0.090000X0.139000X-0.090000X0*%
%ADD13RoundRect,0.090000X-0.139000X-0.090000X0.139000X-0.090000X0.139000X0.090000X-0.139000X0.090000X0*%
%ADD14R,1.600000X0.550000*%
%ADD15R,0.550000X1.600000*%
%ADD16R,1.400000X0.300000*%
%ADD17R,1.100000X1.300000*%
G04 APERTURE END LIST*
D10*
X122936000Y-88721500D03*
X122936000Y-89586500D03*
X122936000Y-96087500D03*
X122936000Y-96952500D03*
D11*
X120904000Y-96952500D03*
X120904000Y-96087500D03*
D12*
X131242500Y-84074000D03*
X130377500Y-84074000D03*
D13*
X128524000Y-84074000D03*
X129389000Y-84074000D03*
D14*
X124782000Y-87370000D03*
X124782000Y-88170000D03*
X124782000Y-88970000D03*
X124782000Y-89770000D03*
X124782000Y-90570000D03*
X124782000Y-91370000D03*
X124782000Y-92170000D03*
X124782000Y-92970000D03*
D15*
X126232000Y-94420000D03*
X127032000Y-94420000D03*
X127832000Y-94420000D03*
X128632000Y-94420000D03*
X129432000Y-94420000D03*
X130232000Y-94420000D03*
X131032000Y-94420000D03*
X131832000Y-94420000D03*
D14*
X133282000Y-92970000D03*
X133282000Y-92170000D03*
X133282000Y-91370000D03*
X133282000Y-90570000D03*
X133282000Y-89770000D03*
X133282000Y-88970000D03*
X133282000Y-88170000D03*
X133282000Y-87370000D03*
D15*
X131832000Y-85920000D03*
X131032000Y-85920000D03*
X130232000Y-85920000D03*
X129432000Y-85920000D03*
X128632000Y-85920000D03*
X127832000Y-85920000D03*
X127032000Y-85920000D03*
X126232000Y-85920000D03*
D16*
X128946000Y-98790000D03*
X128946000Y-98290000D03*
X128946000Y-97790000D03*
X128946000Y-97290000D03*
X128946000Y-96790000D03*
X124546000Y-96790000D03*
X124546000Y-97290000D03*
X124546000Y-97790000D03*
X124546000Y-98290000D03*
X124546000Y-98790000D03*
D10*
X122936000Y-91440000D03*
X122936000Y-90575000D03*
D17*
X133413000Y-98840000D03*
X133413000Y-96740000D03*
X131763000Y-96740000D03*
X131763000Y-98840000D03*
D12*
X131496500Y-100330000D03*
X130631500Y-100330000D03*
M02*
