G04 #@! TF.GenerationSoftware,KiCad,Pcbnew,(6.0.9)*
G04 #@! TF.CreationDate,2024-04-27T20:04:49+10:00*
G04 #@! TF.ProjectId,DFO,44464f2e-6b69-4636-9164-5f7063625858,rev?*
G04 #@! TF.SameCoordinates,Original*
G04 #@! TF.FileFunction,Legend,Top*
G04 #@! TF.FilePolarity,Positive*
%FSLAX46Y46*%
G04 Gerber Fmt 4.6, Leading zero omitted, Abs format (unit mm)*
G04 Created by KiCad (PCBNEW (6.0.9)) date 2024-04-27 20:04:49*
%MOMM*%
%LPD*%
G01*
G04 APERTURE LIST*
%ADD10C,0.150000*%
%ADD11C,0.120000*%
G04 APERTURE END LIST*
D10*
X135020095Y-83610761D02*
X135820095Y-83610761D01*
X135820095Y-83915523D01*
X135782000Y-83991714D01*
X135743904Y-84029809D01*
X135667714Y-84067904D01*
X135553428Y-84067904D01*
X135477238Y-84029809D01*
X135439142Y-83991714D01*
X135401047Y-83915523D01*
X135401047Y-83610761D01*
X135058190Y-84372666D02*
X135020095Y-84486952D01*
X135020095Y-84677428D01*
X135058190Y-84753619D01*
X135096285Y-84791714D01*
X135172476Y-84829809D01*
X135248666Y-84829809D01*
X135324857Y-84791714D01*
X135362952Y-84753619D01*
X135401047Y-84677428D01*
X135439142Y-84525047D01*
X135477238Y-84448857D01*
X135515333Y-84410761D01*
X135591523Y-84372666D01*
X135667714Y-84372666D01*
X135743904Y-84410761D01*
X135782000Y-84448857D01*
X135820095Y-84525047D01*
X135820095Y-84715523D01*
X135782000Y-84829809D01*
X135020095Y-85591714D02*
X135020095Y-85134571D01*
X135020095Y-85363142D02*
X135820095Y-85363142D01*
X135705809Y-85286952D01*
X135629619Y-85210761D01*
X135591523Y-85134571D01*
X135020095Y-86544095D02*
X135820095Y-86544095D01*
X135248666Y-86810761D01*
X135820095Y-87077428D01*
X135020095Y-87077428D01*
X135439142Y-87725047D02*
X135439142Y-87458380D01*
X135020095Y-87458380D02*
X135820095Y-87458380D01*
X135820095Y-87839333D01*
X135820095Y-88296476D02*
X135820095Y-88448857D01*
X135782000Y-88525047D01*
X135705809Y-88601238D01*
X135553428Y-88639333D01*
X135286761Y-88639333D01*
X135134380Y-88601238D01*
X135058190Y-88525047D01*
X135020095Y-88448857D01*
X135020095Y-88296476D01*
X135058190Y-88220285D01*
X135134380Y-88144095D01*
X135286761Y-88106000D01*
X135553428Y-88106000D01*
X135705809Y-88144095D01*
X135782000Y-88220285D01*
X135820095Y-88296476D01*
D11*
X119826000Y-92010000D02*
X119826000Y-93410000D01*
X118426000Y-93410000D02*
X118426000Y-92010000D01*
X119826000Y-93410000D02*
X118426000Y-93410000D01*
X118426000Y-92010000D02*
X119826000Y-92010000D01*
X118426000Y-89854000D02*
X118426000Y-88454000D01*
X118426000Y-88454000D02*
X119826000Y-88454000D01*
X119826000Y-88454000D02*
X119826000Y-89854000D01*
X119826000Y-89854000D02*
X118426000Y-89854000D01*
X118426000Y-99376000D02*
X119826000Y-99376000D01*
X119826000Y-99376000D02*
X119826000Y-100776000D01*
X119826000Y-100776000D02*
X118426000Y-100776000D01*
X118426000Y-100776000D02*
X118426000Y-99376000D01*
D10*
X132657000Y-86545000D02*
X132332000Y-86545000D01*
X125407000Y-86545000D02*
X125407000Y-86770000D01*
X125407000Y-86545000D02*
X125732000Y-86545000D01*
X125407000Y-93795000D02*
X125407000Y-93470000D01*
X132657000Y-93795000D02*
X132657000Y-93470000D01*
X132657000Y-93795000D02*
X132332000Y-93795000D01*
X125407000Y-86770000D02*
X123982000Y-86770000D01*
X132657000Y-86545000D02*
X132657000Y-86870000D01*
X125407000Y-93795000D02*
X125732000Y-93795000D01*
D11*
X119826000Y-95566000D02*
X119826000Y-96966000D01*
X118426000Y-96966000D02*
X118426000Y-95566000D01*
X119826000Y-96966000D02*
X118426000Y-96966000D01*
X118426000Y-95566000D02*
X119826000Y-95566000D01*
D10*
X128421000Y-96115000D02*
X128421000Y-96415000D01*
X128421000Y-99465000D02*
X128421000Y-99240000D01*
X125071000Y-99465000D02*
X125071000Y-99165000D01*
X128421000Y-99240000D02*
X129646000Y-99240000D01*
X128421000Y-99465000D02*
X125071000Y-99465000D01*
X125071000Y-96115000D02*
X125071000Y-96415000D01*
X128421000Y-96115000D02*
X125071000Y-96115000D01*
D11*
X118426000Y-84898000D02*
X119826000Y-84898000D01*
X119826000Y-84898000D02*
X119826000Y-86298000D01*
X119826000Y-86298000D02*
X118426000Y-86298000D01*
X118426000Y-86298000D02*
X118426000Y-84898000D01*
X134163000Y-99690000D02*
X134163000Y-95890000D01*
X131013000Y-99690000D02*
X134163000Y-99690000D01*
M02*
